<?xml version="1.0" standalone="no"?>
<!DOCTYPE svg PUBLIC "-//W3C//DTD SVG 20010904//EN"
 "http://www.w3.org/TR/2001/REC-SVG-20010904/DTD/svg10.dtd">
<svg version="1.0" xmlns="http://www.w3.org/2000/svg"
 width="784.000000pt" height="1168.000000pt" viewBox="0 0 784.000000 1168.000000"
 preserveAspectRatio="xMidYMid meet">

<g transform="translate(0.000000,1168.000000) scale(0.100000,-0.100000)"
fill="#000000" stroke="none">
<path d="M1500 11587 c-342 -192 -646 -394 -1045 -692 -171 -128 -343 -253
-382 -279 l-73 -47 0 -124 c0 -69 2 -125 4 -125 4 0 153 66 316 140 97 44 320
139 515 219 202 83 550 196 722 235 407 92 683 106 1005 52 208 -35 331 -73
516 -157 35 -16 67 -29 73 -29 5 0 30 -10 54 -21 37 -17 56 -20 98 -15 29 4
66 6 84 6 17 0 39 7 48 17 14 14 20 14 37 4 15 -9 23 -9 34 0 10 8 14 8 14 0
0 -6 9 -11 20 -11 11 0 20 5 20 10 0 6 6 10 13 10 18 0 67 24 67 33 0 4 9 7
20 7 22 0 28 19 8 22 -7 0 -17 2 -23 2 -5 1 -16 5 -24 10 -8 5 -16 4 -22 -5
-6 -10 -11 -11 -19 -3 -8 8 -7 16 4 27 22 21 20 30 -4 22 -15 -5 -20 -2 -20
10 0 13 -6 16 -26 12 -27 -5 -118 33 -96 40 24 9 12 25 -14 19 -20 -5 -25 -3
-24 11 4 31 0 36 -15 23 -11 -9 -18 -8 -36 9 -13 12 -26 21 -29 21 -4 0 -13
11 -20 25 -7 14 -22 25 -32 25 -35 0 -82 35 -71 53 3 5 -4 6 -16 2 -20 -6 -21
-4 -16 22 3 15 2 22 -1 16 -3 -7 -12 -13 -20 -13 -8 0 -14 -5 -14 -11 0 -6 -7
-4 -15 5 -8 8 -15 19 -15 24 0 15 -22 20 -63 16 -23 -3 -37 0 -37 7 0 7 -10 9
-25 7 -17 -4 -25 -1 -25 8 0 8 -11 14 -25 14 -16 0 -25 6 -25 15 0 8 -4 15
-10 15 -5 0 -10 7 -10 16 0 14 -2 14 -16 3 -14 -11 -18 -10 -30 5 -7 11 -11
23 -8 27 3 5 -2 6 -10 3 -9 -3 -16 -12 -16 -20 0 -10 -6 -11 -31 -2 -17 6 -33
16 -35 23 -3 8 -18 10 -48 5 -23 -3 -48 -4 -54 -2 -16 5 -15 29 1 35 6 2 -4 4
-23 5 -19 0 -45 1 -57 2 -13 0 -23 4 -23 8 0 13 -71 14 -86 1 -8 -7 -17 -9
-21 -5 -10 10 -14 46 -5 46 4 0 48 5 97 11 206 24 491 3 748 -56 394 -89 794
-300 1207 -634 93 -76 164 -131 285 -223 198 -150 492 -320 600 -346 28 -7 57
-14 65 -16 9 -2 49 -15 90 -29 41 -14 104 -32 140 -41 36 -10 81 -22 100 -28
104 -33 254 -65 475 -102 88 -14 183 -31 210 -36 49 -10 144 -20 420 -44 216
-20 903 -5 969 20 12 5 16 20 16 66 l0 61 -37 -7 c-141 -23 -280 -29 -450 -18
-314 21 -577 75 -894 182 -152 52 -316 143 -288 161 11 7 9 12 -9 24 -12 9
-20 21 -17 26 10 16 -5 47 -25 52 -12 3 -18 11 -15 19 4 10 -5 19 -27 26 -18
7 -23 10 -10 8 34 -6 17 11 -18 18 -18 3 -29 10 -25 16 6 9 -7 14 -27 11 -4 0
-12 8 -18 19 -6 11 -15 20 -21 20 -9 0 -214 136 -365 242 -34 24 -117 88 -184
143 -67 55 -137 112 -156 126 -18 14 -50 40 -71 56 -183 148 -558 397 -740
491 l-81 42 -1349 0 -1348 -1 -165 -92z"/>
<path d="M2930 11263 c0 -5 11 -9 25 -9 14 -1 22 2 19 7 -6 11 -44 12 -44 2z"/>
<path d="M3250 11158 c0 -9 -8 -22 -17 -27 -14 -8 -15 -10 -3 -11 29 0 43 16
31 36 -9 17 -10 17 -11 2z"/>
<path d="M3288 11103 c7 -3 16 -2 19 1 4 3 -2 6 -13 5 -11 0 -14 -3 -6 -6z"/>
<path d="M3415 11060 c-3 -5 -2 -10 4 -10 5 0 13 5 16 10 3 6 2 10 -4 10 -5 0
-13 -4 -16 -10z"/>
<path d="M6160 10430 c0 -6 7 -10 15 -10 8 0 15 2 15 4 0 2 -7 6 -15 10 -8 3
-15 1 -15 -4z"/>
<path d="M7775 9173 c-67 -35 -277 -117 -389 -153 -116 -37 -349 -97 -401
-104 -22 -3 -62 -9 -90 -15 -231 -44 -857 -60 -1039 -26 -34 7 -35 6 -27 -21
5 -21 13 -28 35 -29 15 0 31 -7 37 -15 7 -12 11 -13 18 -2 6 10 11 5 21 -17 7
-17 17 -28 22 -25 5 4 23 -3 39 -15 15 -11 33 -21 39 -21 6 0 8 -5 4 -11 -5
-8 1 -10 18 -6 24 6 25 4 22 -24 -4 -32 -4 -32 36 -26 36 5 43 2 62 -24 14
-19 30 -29 43 -27 14 2 19 -2 17 -14 -2 -14 4 -18 28 -18 16 0 30 -4 30 -9 0
-5 18 -16 39 -24 22 -9 42 -21 46 -27 3 -6 11 -7 17 -4 7 4 8 2 4 -5 -10 -15
33 -50 56 -46 10 2 18 -2 18 -10 0 -9 10 -13 27 -12 21 2 28 -3 33 -22 5 -23
10 -24 94 -28 48 -3 111 1 139 7 29 6 84 18 122 27 76 16 182 48 230 68 17 7
62 23 100 35 86 27 398 178 520 252 l90 54 3 182 c1 100 -1 182 -5 182 -5 -1
-30 -13 -58 -27z m-1310 -653 c3 -5 -1 -10 -9 -10 -9 0 -16 5 -16 10 0 6 4 10
9 10 6 0 13 -4 16 -10z"/>
<path d="M6150 8630 c19 -13 30 -13 30 0 0 6 -10 10 -22 10 -19 0 -20 -2 -8
-10z"/>
<path d="M3360 6905 c-161 -32 -392 -152 -620 -320 -242 -178 -410 -258 -615
-289 -106 -17 -57 -21 65 -6 154 19 285 58 541 160 139 55 289 110 333 121
174 46 357 33 491 -33 57 -28 61 -29 87 -13 16 9 28 12 28 7 0 -12 38 -4 46 9
5 9 -21 38 -52 55 -91 52 -119 64 -130 60 -7 -3 -18 3 -23 12 -6 9 -11 14 -11
9 0 -4 -15 -1 -32 6 -18 8 -39 12 -46 9 -7 -2 -18 0 -25 6 -22 17 -70 24 -78
11 -6 -10 -11 -10 -23 0 -9 7 -27 11 -41 9 -14 -3 -28 -2 -30 3 -8 12 101 24
220 24 185 -1 348 -62 515 -191 135 -104 227 -162 283 -178 383 -111 683 -125
934 -45 102 33 226 90 239 110 5 8 3 9 -7 3 -8 -4 -21 -10 -31 -11 -9 -1 -31
-11 -50 -22 -46 -27 -178 -67 -271 -81 -96 -16 -297 -8 -382 14 -112 30 -175
57 -175 76 0 10 -7 23 -15 30 -9 7 -14 19 -11 25 2 7 -14 23 -37 35 -22 13
-79 52 -126 88 -252 191 -395 264 -599 307 -88 18 -262 18 -352 0z"/>
<path d="M5918 6513 c6 -2 18 -2 25 0 6 3 1 5 -13 5 -14 0 -19 -2 -12 -5z"/>
<path d="M5858 6503 c7 -3 16 -2 19 1 4 3 -2 6 -13 5 -11 0 -14 -3 -6 -6z"/>
<path d="M5748 6480 c-127 -37 -246 -101 -428 -230 -112 -80 -277 -169 -386
-209 -141 -52 -230 -64 -404 -58 -85 3 -168 9 -185 13 -16 4 -27 4 -24 1 8
-10 150 -39 196 -40 23 -1 39 -5 36 -11 -4 -5 1 -7 10 -3 18 7 70 -16 60 -27
-4 -3 2 -6 13 -5 36 4 64 -1 64 -11 0 -5 -7 -6 -17 -3 -11 4 -14 3 -9 -6 5 -8
18 -10 33 -6 18 4 23 2 17 -6 -5 -9 -2 -10 10 -6 14 6 15 4 5 -15 -11 -20 -9
-21 19 -15 65 13 194 70 279 123 79 50 157 110 331 257 135 114 276 201 402
248 86 32 76 36 -22 9z"/>
<path d="M4288 6003 c7 -3 16 -2 19 1 4 3 -2 6 -13 5 -11 0 -14 -3 -6 -6z"/>
<path d="M3670 5060 l0 -420 60 0 60 0 0 420 0 420 -60 0 -60 0 0 -420z"/>
<path d="M1673 5416 c-282 -92 -372 -424 -175 -646 89 -100 234 -152 367 -131
78 13 152 45 205 89 l35 29 -35 39 -35 39 -48 -32 c-60 -40 -104 -53 -188 -53
-80 0 -152 33 -203 92 -53 62 -70 105 -74 189 -5 98 20 161 89 223 59 53 121
76 203 76 67 0 151 -32 196 -76 l26 -24 32 42 c18 23 32 45 32 50 0 18 -99 79
-159 98 -85 27 -177 25 -268 -4z"/>
<path d="M4241 5425 c-121 -34 -213 -110 -268 -223 -26 -52 -28 -67 -28 -167
0 -100 3 -115 28 -167 79 -160 263 -258 434 -229 77 13 177 58 212 95 l24 25
-33 41 -33 41 -21 -20 c-11 -11 -48 -32 -80 -47 -115 -52 -241 -30 -327 58
-63 64 -84 117 -84 213 0 70 4 87 30 133 52 95 129 142 241 150 83 5 124 -6
196 -55 l52 -34 33 38 c18 21 32 40 33 43 1 13 -80 66 -134 88 -77 31 -198 38
-275 17z"/>
<path d="M2393 5236 c-180 -59 -263 -259 -178 -431 49 -102 136 -156 261 -163
102 -5 165 14 228 69 66 59 99 134 98 229 0 130 -54 225 -155 274 -66 33 -190
43 -254 22z m211 -123 c52 -37 76 -79 83 -148 13 -126 -70 -225 -191 -225 -56
0 -93 14 -130 48 -85 80 -87 234 -3 310 63 58 170 65 241 15z"/>
<path d="M3102 5233 c-75 -23 -154 -96 -181 -169 -63 -167 11 -346 167 -405
46 -17 72 -20 137 -17 128 7 215 61 265 164 20 40 24 66 24 139 1 79 -2 96
-26 140 -54 102 -142 156 -263 161 -45 2 -89 -2 -123 -13z m216 -116 c108 -71
111 -264 5 -344 -49 -38 -142 -44 -201 -14 -155 79 -138 329 26 382 49 15 128
5 170 -24z"/>
<path d="M4927 5240 c-28 -8 -130 -53 -144 -64 -1 -1 7 -20 17 -42 l20 -40 62
30 c49 24 75 31 123 31 89 0 135 -36 150 -117 l7 -36 -144 -4 c-130 -3 -147
-5 -186 -28 -72 -41 -104 -118 -83 -197 24 -88 95 -134 209 -134 76 0 120 14
170 55 l32 28 0 -41 0 -41 55 0 55 0 0 225 c0 168 -3 234 -14 258 -16 38 -59
83 -100 104 -36 19 -175 26 -229 13z m229 -367 c-11 -87 -79 -143 -173 -143
-64 0 -100 15 -119 51 -18 36 -18 59 2 88 28 39 70 50 188 51 l109 0 -7 -47z"/>
<path d="M5512 5242 l-52 -3 2 -297 3 -297 58 -3 57 -3 0 158 c0 168 7 210 43
264 25 38 97 79 139 79 27 0 28 1 28 55 0 54 -1 55 -28 55 -44 0 -126 -46
-156 -88 l-26 -37 0 57 c0 31 -3 58 -7 60 -5 2 -32 2 -61 0z"/>
<path d="M6075 5241 c-84 -24 -148 -73 -192 -149 -21 -36 -28 -62 -31 -127 -5
-102 13 -166 67 -227 58 -66 119 -92 221 -96 97 -4 171 17 230 67 l34 28 -30
35 -30 34 -38 -28 c-75 -54 -155 -62 -234 -22 -52 26 -84 65 -97 117 l-7 27
237 0 238 0 -6 74 c-13 172 -101 263 -261 272 -39 2 -84 -1 -101 -5z m185
-115 c36 -24 61 -64 74 -118 l6 -28 -185 0 c-180 0 -185 1 -185 20 0 12 9 38
20 60 48 94 179 126 270 66z"/>
</g>
</svg>
