<svg xmlns="http://www.w3.org/2000/svg" width="512" height="512" viewBox="0 0 512 512">
  <defs>
    <linearGradient id="bg" x1="0%" y1="0%" x2="100%" y2="100%">
      <stop offset="0%" style="stop-color:#0066cc"/>
      <stop offset="100%" style="stop-color:#00B4FF"/>
    </linearGradient>
  </defs>
  <rect width="512" height="512" rx="96" fill="url(#bg)"/>
  <!-- Snowflake -->
  <g transform="translate(256,240)" stroke="white" stroke-width="16" stroke-linecap="round" fill="none">
    <line x1="0" y1="-90" x2="0" y2="90"/>
    <line x1="-78" y1="-45" x2="78" y2="45"/>
    <line x1="-78" y1="45" x2="78" y2="-45"/>
    <line x1="-20" y1="-70" x2="0" y2="-90"/>
    <line x1="20" y1="-70" x2="0" y2="-90"/>
    <line x1="-20" y1="70" x2="0" y2="90"/>
    <line x1="20" y1="70" x2="0" y2="90"/>
    <line x1="-58" y1="-55" x2="-78" y2="-45"/>
    <line x1="-68" y1="-25" x2="-78" y2="-45"/>
    <line x1="58" y1="55" x2="78" y2="45"/>
    <line x1="68" y1="25" x2="78" y2="45"/>
    <line x1="-58" y1="55" x2="-78" y2="45"/>
    <line x1="-68" y1="25" x2="-78" y2="45"/>
    <line x1="58" y1="-55" x2="78" y2="-45"/>
    <line x1="68" y1="-25" x2="78" y2="-45"/>
  </g>
  <!-- Wrench -->
  <g transform="translate(330,340) rotate(-45)" stroke="white" stroke-width="12" stroke-linecap="round" fill="none">
    <rect x="-8" y="-50" width="16" height="70" rx="4" fill="white"/>
    <circle cx="0" cy="-60" r="20"/>
  </g>
  <!-- Text -->
  <text x="256" y="460" text-anchor="middle" font-family="Arial,sans-serif" font-weight="bold" font-size="48" fill="white" opacity="0.95">CoolCare</text>
</svg>
